<svg width="20" height="20" viewBox="0 0 20 20" fill="none" xmlns="http://www.w3.org/2000/svg">
<mask id="mask0_1695_88558" style="mask-type:alpha" maskUnits="userSpaceOnUse" x="0" y="0" width="20" height="20">
<rect width="20" height="20" fill="#D9D9D9"/>
</mask>
<g mask="url(#mask0_1695_88558)">
<path d="M10.2428 13.1576C10.4317 13.1576 10.5901 13.0937 10.7178 12.9659C10.8456 12.8381 10.9095 12.6798 10.9095 12.4909C10.9095 12.302 10.8456 12.1437 10.7178 12.0159C10.5901 11.8881 10.4317 11.8243 10.2428 11.8243C10.0539 11.8243 9.89562 11.8881 9.76784 12.0159C9.64006 12.1437 9.57617 12.302 9.57617 12.4909C9.57617 12.6798 9.64006 12.8381 9.76784 12.9659C9.89562 13.0937 10.0539 13.1576 10.2428 13.1576ZM9.57617 10.4909H10.9095V6.49093H9.57617V10.4909ZM10.2428 16.4909C9.32062 16.4909 8.45395 16.3159 7.64284 15.9659C6.83173 15.6159 6.12617 15.1409 5.52617 14.5409C4.92617 13.9409 4.45117 13.2354 4.10117 12.4243C3.75117 11.6131 3.57617 10.7465 3.57617 9.82426C3.57617 8.90204 3.75117 8.03537 4.10117 7.22426C4.45117 6.41315 4.92617 5.70759 5.52617 5.10759C6.12617 4.50759 6.83173 4.03259 7.64284 3.68259C8.45395 3.33259 9.32062 3.15759 10.2428 3.15759C11.1651 3.15759 12.0317 3.33259 12.8428 3.68259C13.6539 4.03259 14.3595 4.50759 14.9595 5.10759C15.5595 5.70759 16.0345 6.41315 16.3845 7.22426C16.7345 8.03537 16.9095 8.90204 16.9095 9.82426C16.9095 10.7465 16.7345 11.6131 16.3845 12.4243C16.0345 13.2354 15.5595 13.9409 14.9595 14.5409C14.3595 15.1409 13.6539 15.6159 12.8428 15.9659C12.0317 16.3159 11.1651 16.4909 10.2428 16.4909Z" fill="#F94A4D"/>
</g>
</svg>
