<svg width="81" height="80" viewBox="0 0 81 80" fill="none" xmlns="http://www.w3.org/2000/svg">
<g clip-path="url(#clip0_653_75006)">
<rect x="0.469727" width="80" height="80" rx="40" fill="#F36630"/>
<circle cx="46.3764" cy="23.4583" r="10.3944" transform="rotate(32.8177 46.3764 23.4583)" fill="#F8F8F8"/>
<circle cx="63.1278" cy="34.2612" r="14.4298" transform="rotate(32.8177 63.1278 34.2612)" fill="#F8F8F8"/>
<circle cx="79.8791" cy="45.0641" r="10.3944" transform="rotate(32.8177 79.8791 45.0641)" fill="#F8F8F8"/>
<circle cx="28.612" cy="37.4665" r="14.4298" transform="rotate(32.8177 28.612 37.4665)" fill="#F8F8F8"/>
<circle cx="50.7073" cy="51.7157" r="21.6447" transform="rotate(32.8177 50.7073 51.7157)" fill="#F8F8F8"/>
<circle cx="73.6249" cy="66.4951" r="15.4081" transform="rotate(32.8177 73.6249 66.4951)" fill="#F8F8F8"/>
<circle cx="23.1799" cy="59.4276" r="10.3944" transform="rotate(32.8177 23.1799 59.4276)" fill="#F8F8F8"/>
<circle cx="39.9313" cy="70.2306" r="14.4298" transform="rotate(32.8177 39.9313 70.2306)" fill="#F8F8F8"/>
<circle cx="56.6826" cy="81.0334" r="10.3944" transform="rotate(32.8177 56.6826 81.0334)" fill="#F8F8F8"/>
<path d="M34.9619 36.25C35.5177 37.7521 36.702 38.9363 38.204 39.4922C36.702 40.048 35.5177 41.2323 34.9619 42.7343C34.4061 41.2323 33.2218 40.048 31.7197 39.4922C33.2218 38.9363 34.4061 37.7521 34.9619 36.25Z" fill="#1D1D1D"/>
<path d="M45.0049 36.25C45.5607 37.7521 46.7449 38.9363 48.247 39.4922C46.7449 40.048 45.5607 41.2323 45.0049 42.7343C44.449 41.2323 43.2648 40.048 41.7627 39.4922C43.2648 38.9363 44.449 37.7521 45.0049 36.25Z" fill="#1D1D1D"/>
</g>
<rect x="2.34473" y="1.875" width="76.25" height="76.25" rx="38.125" stroke="#F36630" stroke-width="3.75"/>
<defs>
<clipPath id="clip0_653_75006">
<rect x="0.469727" width="80" height="80" rx="40" fill="white"/>
</clipPath>
</defs>
</svg>
